<?xml version="1.0" encoding="utf-8"?>
<svg width="19.030518px" height="17.995667px" viewBox="0 0 19.030518 17.995667" version="1.1" xmlns:xlink="http://www.w3.org/1999/xlink" xmlns="http://www.w3.org/2000/svg">
  <path d="M12.8076 1.48566L12.8076 3.75782C15.1179 4.82616 16.7017 6.98245 16.7017 9.47327C16.7017 13.0265 13.4851 15.9083 9.5173 15.9083C5.54822 15.9083 2.33023 13.0265 2.33023 9.47327C2.33023 7.18923 3.6652 5.18624 5.66699 4.04481L5.66699 1.68293C2.33155 3.00736 0 5.99433 0 9.47387C0 14.1804 4.26238 17.9957 9.51733 17.9957C14.7749 17.9957 19.0306 14.1804 19.0306 9.47387C19.03 5.80359 16.435 2.6871 12.8076 1.48566L12.8076 1.48566ZM9.34914 11.1266C10.0308 11.1266 10.1 10.5397 10.1 9.818L10.1 1.31108C10.1 0.587466 10.0308 0 9.34914 0C8.67007 0 8.6 0.587466 8.6 1.31108L8.6 9.818C8.59957 10.5404 8.67007 11.1266 9.34914 11.1266L9.34914 11.1266Z" id="SVGRepo_iconCarrier" fill="#EDF0F3" stroke="none" />
</svg>