<?xml version="1.0" encoding="utf-8"?>
<svg width="16.725708px" height="16.665466px" viewBox="0 0 16.725708 16.665466" version="1.1" xmlns:xlink="http://www.w3.org/1999/xlink" xmlns="http://www.w3.org/2000/svg">
  <path d="M-317.848 -61.3181L-322.639 -66.0959C-320.395 -68.8798 -320.728 -72.9344 -323.397 -75.3147C-326.065 -77.6949 -330.131 -77.5645 -332.642 -75.0182C-335.152 -72.4718 -335.225 -68.4042 -332.807 -65.7698C-330.389 -63.1353 -326.33 -62.8597 -323.578 -65.143L-318.787 -60.3519L-317.848 -61.3181ZM-331.725 -66.5387C-333.695 -68.6951 -333.62 -72.02 -331.555 -74.0854C-329.489 -76.1508 -326.164 -76.2258 -324.008 -74.2555C-322.038 -72.0991 -322.113 -68.7743 -324.178 -66.7089C-326.243 -64.6435 -329.568 -64.5685 -331.725 -66.5387Z" id="Shape" fill="#636AF6" stroke="none" />
</svg>